<?xml version="1.0" standalone="no"?>
<!DOCTYPE svg PUBLIC "-//W3C//DTD SVG 20010904//EN"
 "http://www.w3.org/TR/2001/REC-SVG-20010904/DTD/svg10.dtd">
<svg version="1.0" xmlns="http://www.w3.org/2000/svg"
 width="512.000000pt" height="512.000000pt" viewBox="0 0 512.000000 512.000000"
 preserveAspectRatio="xMidYMid meet">
<metadata>
Created by potrace 1.11, written by Peter Selinger 2001-2013
</metadata>
<g transform="translate(0.000000,512.000000) scale(0.100000,-0.100000)"
fill="#000000" stroke="none">
<path d="M327 4127 c-34 -84 -39 -99 -44 -121 -2 -11 -7 -24 -12 -30 -6 -9
-31 -87 -36 -116 -1 -3 -7 -25 -15 -50 -7 -25 -14 -54 -16 -65 -2 -11 -6 -33
-10 -50 -4 -16 -7 -40 -7 -52 -1 -13 -4 -23 -8 -23 -3 0 -5 -10 -5 -22 1 -13
0 -27 -3 -33 -3 -5 -6 -26 -7 -45 -1 -19 -3 -35 -4 -35 -7 0 -12 -110 -12
-280 0 -199 3 -271 13 -290 3 -5 5 -27 4 -47 0 -21 3 -38 6 -38 3 0 5 -11 4
-25 -2 -14 1 -27 6 -31 5 -3 7 -9 5 -13 -3 -4 0 -25 5 -47 11 -44 17 -73 23
-108 2 -13 9 -33 14 -43 5 -10 7 -23 5 -30 -2 -6 1 -14 6 -18 6 -3 11 -17 11
-30 0 -13 5 -27 10 -30 6 -4 10 -12 9 -18 -1 -7 3 -24 9 -38 6 -15 12 -35 14
-45 2 -11 7 -22 11 -25 5 -3 10 -12 11 -20 3 -17 18 -52 47 -117 12 -26 21
-48 21 -49 -1 -1 19 -39 44 -83 24 -44 44 -84 44 -89 0 -5 3 -11 8 -13 4 -1
23 -29 42 -60 19 -32 38 -58 42 -58 4 0 8 -6 8 -13 0 -7 9 -23 20 -35 11 -12
20 -24 20 -27 0 -6 13 -23 43 -56 9 -10 17 -21 17 -24 0 -3 10 -16 23 -29 12
-12 38 -42 57 -65 47 -57 284 -291 295 -291 3 0 31 -21 62 -46 54 -45 276
-194 288 -194 3 0 23 -11 45 -25 21 -14 45 -26 52 -27 7 -2 15 -6 18 -9 18
-24 460 -200 460 -184 0 3 16 -1 35 -9 19 -8 35 -13 35 -11 0 2 15 -1 33 -6
34 -11 57 -16 97 -24 14 -3 36 -7 50 -10 34 -7 84 -14 150 -21 30 -3 62 -8 70
-11 25 -10 423 -11 448 -2 13 5 21 6 19 1 -6 -8 39 -7 63 1 8 3 42 8 75 12 85
10 101 12 122 19 10 3 34 8 53 11 19 3 44 9 55 12 11 4 27 7 35 8 73 9 337 97
468 156 34 16 64 28 66 26 2 -1 13 7 25 17 12 11 21 16 21 12 0 -4 13 2 29 13
16 12 32 21 36 21 4 0 19 9 35 20 15 11 30 17 34 13 3 -3 6 -2 6 4 0 6 14 16
30 23 17 7 30 16 30 21 0 5 4 9 9 9 6 0 31 15 57 33 25 17 53 37 62 42 8 6 22
16 31 23 9 7 43 34 76 60 33 26 72 60 88 76 15 15 27 25 27 22 0 -14 209 206
270 284 19 25 39 50 45 57 5 7 15 18 21 26 11 13 59 84 79 116 6 9 20 31 33
49 13 17 20 32 15 32 -4 0 -3 4 3 8 25 16 194 352 177 352 -3 0 0 7 7 15 12
14 8 29 -8 31 -4 1 -23 7 -42 14 -19 8 -37 12 -39 11 -2 -1 -7 2 -10 8 -4 6
-16 12 -26 14 -11 2 -31 9 -45 15 -57 24 -85 35 -90 37 -3 1 -16 6 -30 12 -14
6 -63 25 -110 43 -47 17 -103 40 -125 49 -22 10 -98 40 -170 66 -71 27 -133
53 -136 58 -3 5 -8 8 -10 6 -5 -3 -79 21 -94 30 -5 3 -12 6 -15 7 -3 0 -18 6
-35 13 -16 7 -37 14 -45 16 -8 2 -17 4 -20 5 -3 1 -8 2 -12 1 -5 0 -8 4 -8 9
0 6 -7 10 -15 10 -8 0 -39 11 -70 25 -30 13 -56 24 -58 24 -2 0 -33 11 -122
46 -33 13 -123 48 -200 78 -77 30 -162 62 -190 72 -27 10 -54 22 -59 27 -6 4
-15 8 -22 8 -6 0 -29 8 -50 17 -22 9 -42 18 -46 19 -5 1 -10 3 -13 4 -3 1 -8
3 -12 4 -5 1 -25 10 -47 19 -21 9 -45 17 -52 17 -8 0 -14 5 -14 12 0 6 -3 9
-6 6 -4 -5 -72 18 -149 51 -27 12 -139 55 -145 57 -8 1 -43 15 -79 31 -18 8
-41 17 -50 18 -9 2 -18 4 -21 5 -3 1 -8 2 -12 1 -5 0 -8 3 -8 9 0 5 -5 10 -10
10 -9 0 -292 106 -345 129 -11 5 -58 24 -105 42 -47 18 -87 36 -88 41 -2 4 -8
6 -13 3 -5 -3 -19 0 -31 7 -13 6 -30 13 -38 14 -8 2 -23 7 -35 13 -21 9 -56
23 -65 25 -3 1 -11 5 -17 9 -7 5 -13 5 -13 0 0 -4 -4 -3 -8 2 -6 9 -53 30 -87
39 -5 2 -19 7 -30 11 -93 39 -161 65 -168 65 -4 0 -26 9 -50 19 -23 11 -103
42 -177 71 -74 28 -144 55 -155 60 -51 21 -241 95 -250 96 -5 1 -28 10 -50 19
-22 10 -46 17 -52 16 -7 -1 -13 3 -13 9 0 5 -11 10 -25 10 -14 0 -25 4 -25 8
0 5 -22 15 -50 22 -27 7 -50 18 -50 23 0 5 -7 7 -15 4 -8 -4 -17 -2 -20 4 -4
5 -11 7 -16 4 -5 -4 -9 -1 -9 4 0 6 -8 11 -18 11 -10 0 -22 3 -26 8 -4 4 -11
7 -14 8 -9 1 -35 11 -103 39 l-57 23 -25 -61z"/>
</g>
</svg>
