<?xml version="1.0" standalone="no"?>
<!DOCTYPE svg PUBLIC "-//W3C//DTD SVG 20010904//EN"
 "http://www.w3.org/TR/2001/REC-SVG-20010904/DTD/svg10.dtd">
<svg version="1.0" xmlns="http://www.w3.org/2000/svg"
 width="512.000000pt" height="512.000000pt" viewBox="0 0 512.000000 512.000000"
 preserveAspectRatio="xMidYMid meet">
<metadata>
Created by potrace 1.11, written by Peter Selinger 2001-2013
</metadata>
<g transform="translate(0.000000,512.000000) scale(0.100000,-0.100000)"
fill="#000000" stroke="none">
<path d="M3517 4990 c-39 -25 -87 -73 -87 -86 0 -3 -9 -17 -20 -31 -11 -14
-17 -29 -14 -34 3 -5 1 -9 -4 -9 -5 0 -19 -24 -31 -52 -12 -29 -26 -62 -31
-73 -36 -79 -58 -135 -52 -135 3 0 1 -5 -6 -12 -7 -7 -12 -20 -12 -30 0 -10
-5 -18 -10 -18 -6 0 -9 -3 -8 -7 2 -9 -8 -47 -22 -78 -12 -30 -23 -59 -25 -70
-1 -5 -3 -12 -4 -15 -2 -3 -4 -12 -6 -20 -2 -8 -9 -33 -15 -55 -6 -22 -13 -48
-15 -59 -6 -24 -1 -23 -70 -30 -55 -5 -92 -11 -105 -16 -3 -1 -8 -2 -12 -1 -4
0 -29 -6 -55 -15 -26 -9 -58 -17 -72 -19 -14 -1 -27 -8 -29 -14 -2 -6 -14 -11
-27 -11 -13 0 -25 -5 -27 -10 -2 -6 -17 -13 -33 -16 -16 -3 -32 -8 -35 -12 -3
-4 -27 -18 -55 -32 -27 -13 -68 -36 -90 -49 -68 -43 -79 -50 -105 -63 -14 -7
-29 -18 -33 -25 -4 -7 -15 -13 -22 -13 -8 0 -15 -4 -15 -10 0 -5 -4 -10 -10
-10 -9 0 -18 -6 -72 -52 -12 -10 -24 -18 -27 -18 -3 0 -17 -10 -31 -23 -14
-12 -34 -29 -46 -37 -22 -16 -89 -73 -150 -127 -20 -18 -40 -33 -45 -33 -5 0
-9 -7 -9 -17 0 -9 -2 -14 -5 -11 -3 3 -29 -16 -57 -41 -85 -75 -368 -361 -368
-372 0 -5 -7 -9 -17 -9 -9 0 -14 -3 -10 -6 3 -3 -9 -21 -26 -38 -18 -18 -41
-44 -52 -57 -12 -13 -50 -58 -86 -99 -36 -41 -101 -120 -144 -175 -42 -55 -81
-101 -86 -103 -5 -2 -9 -8 -9 -14 0 -6 -10 -23 -22 -38 -46 -57 -58 -74 -58
-83 0 -5 -8 -17 -18 -26 -10 -9 -28 -33 -41 -53 -12 -21 -27 -38 -32 -38 -5 0
-8 -3 -7 -7 2 -9 -55 -101 -77 -124 -8 -9 -15 -19 -15 -22 0 -4 -22 -39 -48
-79 -27 -40 -57 -89 -68 -108 -10 -19 -22 -37 -25 -40 -9 -7 -40 -69 -37 -73
2 -1 -7 -14 -20 -27 -12 -14 -25 -35 -28 -47 -4 -13 -10 -23 -15 -23 -5 0 -9
-7 -9 -15 0 -8 -5 -15 -11 -15 -5 0 -8 -3 -5 -8 2 -4 -9 -27 -25 -50 -16 -24
-24 -41 -17 -37 7 4 6 1 -3 -7 -9 -7 -19 -23 -23 -36 -4 -12 -12 -22 -17 -22
-5 0 -9 -5 -9 -11 0 -10 -84 -184 -121 -250 -7 -13 -14 -26 -14 -29 -1 -5 -12
-28 -81 -177 -18 -40 -36 -84 -40 -98 -3 -14 -10 -25 -15 -25 -5 0 -6 -7 -3
-15 4 -8 1 -15 -5 -15 -6 0 -10 -3 -9 -7 0 -5 -2 -15 -5 -23 -10 -25 -54 -145
-55 -150 0 -3 -5 -18 -11 -33 -6 -16 -11 -34 -11 -42 0 -8 -5 -17 -11 -20 -6
-4 -8 -13 -5 -20 2 -7 2 -16 -2 -20 -4 -4 -8 -11 -8 -16 -1 -5 -2 -10 -4 -11
-1 -2 -3 -10 -5 -18 -2 -8 -10 -42 -19 -75 -31 -121 -44 -223 -39 -304 3 -60
37 -141 59 -141 8 0 14 -4 14 -10 0 -5 9 -10 19 -10 11 0 22 -4 25 -9 3 -5 20
-8 37 -7 16 1 32 -1 35 -5 3 -5 10 -6 17 -4 7 2 39 6 72 9 33 3 71 8 85 11 14
3 39 7 55 9 17 2 50 9 75 17 52 15 43 12 100 28 25 6 61 18 81 26 20 8 39 11
43 8 3 -4 6 -1 6 5 0 7 8 12 18 12 10 0 22 3 26 7 3 4 16 8 27 10 11 2 33 10
50 18 16 9 29 13 29 10 0 -2 16 4 36 15 19 11 39 18 45 15 5 -4 9 -2 9 2 0 5
17 15 38 22 45 16 104 43 282 129 74 36 138 64 143 64 4 -1 7 2 7 7 0 7 26 20
52 25 4 0 16 9 28 18 11 10 20 16 20 13 0 -3 18 6 40 20 22 14 44 25 48 25 5
0 22 10 38 23 16 12 31 22 34 21 5 -1 23 9 92 53 21 12 42 23 46 23 5 0 20 8
33 18 13 10 44 30 69 43 25 13 47 27 50 30 7 7 182 123 195 128 5 2 18 12 29
23 11 10 26 18 33 18 7 0 13 5 13 10 0 6 6 10 14 10 8 0 16 7 20 15 3 8 11 15
18 15 7 0 25 11 40 25 15 14 30 25 32 25 3 0 14 6 23 14 10 8 77 58 148 112
72 54 135 103 141 108 7 6 29 25 49 41 21 17 44 36 51 42 7 7 15 13 18 13 3 0
21 16 41 37 19 20 35 33 35 30 0 -3 20 13 44 36 24 23 81 75 125 115 107 98
234 228 361 372 36 41 74 84 85 95 11 12 38 44 60 71 22 27 43 51 47 52 5 2 8
8 8 13 0 5 8 17 18 27 25 27 43 50 82 107 19 28 37 52 40 55 3 3 20 28 38 55
18 28 37 57 42 65 19 28 54 85 55 90 5 20 51 100 58 100 4 0 6 4 2 9 -3 5 2
17 11 25 8 9 13 16 10 16 -3 0 2 17 11 38 20 47 30 74 33 87 1 6 7 21 12 35
12 30 19 57 23 90 2 14 4 25 5 25 1 0 4 13 6 30 6 36 3 33 39 39 17 2 32 5 35
7 3 1 10 3 15 4 6 2 12 4 15 5 10 3 45 11 58 12 6 1 12 5 12 10 0 5 4 7 8 4 7
-4 147 41 197 63 41 19 120 46 128 43 4 -1 7 2 7 8 0 5 5 10 11 10 15 0 65 22
174 76 204 101 260 204 158 292 -31 28 -102 67 -131 73 -4 0 -16 6 -27 12 -11
6 -22 12 -25 13 -3 0 -12 3 -20 6 -13 6 -78 22 -120 32 -33 7 -127 22 -165 25
-24 2 -17 14 23 41 37 25 189 170 177 170 -3 0 5 11 19 24 15 13 26 26 26 30
0 3 15 28 33 54 18 26 46 74 62 107 17 33 34 63 38 66 5 3 9 10 9 15 0 9 9 33
30 82 6 15 12 29 13 32 20 68 31 96 40 102 5 4 7 8 3 8 -3 0 0 21 8 48 18 59
26 99 28 135 0 15 4 27 7 27 3 0 6 30 6 68 1 54 -3 71 -19 86 -20 19 -91 31
-118 20 -8 -3 -37 -8 -65 -10 -27 -1 -57 -5 -65 -7 -8 -2 -33 -7 -55 -12 -22
-4 -44 -10 -50 -14 -5 -3 -19 -7 -30 -9 -33 -6 -37 -7 -110 -31 -76 -26 -305
-140 -349 -175 -59 -46 -112 -88 -126 -100 -33 -29 -108 -112 -119 -135 -17
-31 -35 -13 -38 39 -1 32 -33 180 -48 228 -3 7 -5 14 -5 17 -1 15 -73 160 -81
166 -6 3 -10 9 -10 13 1 13 -12 36 -20 36 -6 0 -19 9 -30 19 -34 31 -75 31
-122 1z"/>
</g>
</svg>
